<svg xmlns="http://www.w3.org/2000/svg" width="42.552" height="28.136" viewBox="0 0 42.552 28.136">
  <g id="Group_179" data-name="Group 179" transform="translate(-273 -3469)">
    <g id="Group_76" data-name="Group 76" transform="translate(294.276 3469)">
      <path id="Path_23" data-name="Path 23" d="M64.783,26.915a.6.6,0,0,1-.176.472c-.626.659-2.7.8-3.354.091a1.02,1.02,0,0,1-.225-.608,11.721,11.721,0,0,1-.076-2.133,9,9,0,0,1,.579-2.8,8.547,8.547,0,0,1,1.949-2.869c.254-.257.515-.509.784-.772a14.426,14.426,0,0,0,1.361-1.479,2.372,2.372,0,0,0,.6-1.931.766.766,0,0,1,.428.579,2.792,2.792,0,0,1-.327,2.061,8.149,8.149,0,0,1-.9,1.3,7.321,7.321,0,0,0-1.841,3.05,16.865,16.865,0,0,1,2.845-1.92C68.7,18.6,70.247,17.4,70.777,14.7a11.85,11.85,0,0,0-.538-6.045,4.446,4.446,0,0,1,1.15,1.627,9.531,9.531,0,0,1,.812,4.16,14.01,14.01,0,0,1-.351,2.786c-.033.149-.058.279-.075.4-.1.714.191.969.894.738a3.919,3.919,0,0,0,.982-.506A5.548,5.548,0,0,0,75.5,15.719a5.279,5.279,0,0,0,.418-1.2,5.029,5.029,0,0,0-.554-3.389,16.9,16.9,0,0,0-2.06-3.02c-.714-.876-1.46-1.718-2.15-2.626C69.9,3.824,68.554,1.652,68.891,0a9.045,9.045,0,0,0,2.24,3.662c1.335,1.466,2.839,2.729,4.147,4.24a20.57,20.57,0,0,1,1.861,2.5c.751,1.188,1.231,1.578,2.073.714a4.774,4.774,0,0,0,1.116-1.721,6.84,6.84,0,0,0,.141-3.271c-.122-.792-.245-1.406-.34-1.965-.161-.946-.363-2.945.165-3.8a12.114,12.114,0,0,0,.516,2.957c.2.673.441,1.322.681,2.034a10.775,10.775,0,0,1,.7,4.245,7.163,7.163,0,0,1-2.305,4.57,13.126,13.126,0,0,0-1.1,1.379c-.715,1.027-1.167,1.917-1.84,2.785A7.678,7.678,0,0,1,75.615,19.7a9.308,9.308,0,0,1-2.971,1.443c-.891.286-1.782.521-2.661.8A12.555,12.555,0,0,0,66.4,23.569a3.873,3.873,0,0,0-1.533,2A3.069,3.069,0,0,0,64.783,26.915Z" transform="translate(-60.934 0)" fill="#292929" fill-rule="evenodd"/>
      <path id="Path_24" data-name="Path 24" d="M73.664,60.661A13.578,13.578,0,0,1,79.326,55.5a13.941,13.941,0,0,1,4.445-1.377c.97-.119,1.237.092.928,1.062a6.781,6.781,0,0,1-6.724,4.715c-1.548.033-3.143-.21-4.312.767" transform="translate(-68.589 -32.525)" fill="#292929" fill-rule="evenodd"/>
    </g>
    <g id="Group_77" data-name="Group 77" transform="translate(273 3469)">
      <path id="Path_22" data-name="Path 22" d="M17.427,26.915a.6.6,0,0,0,.176.472c.626.659,2.7.8,3.354.091a1.02,1.02,0,0,0,.225-.608,11.722,11.722,0,0,0,.076-2.133,9,9,0,0,0-.579-2.8,8.547,8.547,0,0,0-1.949-2.869c-.254-.257-.515-.509-.784-.772a14.428,14.428,0,0,1-1.361-1.479,2.366,2.366,0,0,1-.6-1.931.766.766,0,0,0-.428.579,2.792,2.792,0,0,0,.327,2.061,8.046,8.046,0,0,0,.9,1.3,7.321,7.321,0,0,1,1.841,3.05,16.865,16.865,0,0,0-2.845-1.92C13.512,18.6,11.963,17.4,11.434,14.7a11.862,11.862,0,0,1,.537-6.045,4.451,4.451,0,0,0-1.15,1.627,9.525,9.525,0,0,0-.811,4.16,14.008,14.008,0,0,0,.351,2.786c.032.149.058.279.075.4.1.714-.19.969-.893.738a3.926,3.926,0,0,1-.983-.506,5.538,5.538,0,0,1-1.853-2.131,5.244,5.244,0,0,1-.419-1.2,5.036,5.036,0,0,1,.555-3.389A16.89,16.89,0,0,1,8.9,8.109c.714-.876,1.46-1.718,2.151-2.626,1.261-1.659,2.6-3.83,2.266-5.483a9.037,9.037,0,0,1-2.241,3.662C9.745,5.128,8.239,6.391,6.932,7.9a20.652,20.652,0,0,0-1.861,2.5c-.752,1.188-1.23,1.578-2.073.714A4.771,4.771,0,0,1,1.883,9.391a6.83,6.83,0,0,1-.141-3.271c.122-.792.245-1.406.34-1.965.161-.946.361-2.945-.166-3.8A12.077,12.077,0,0,1,1.4,3.315C1.2,3.987.959,4.637.719,5.349a10.805,10.805,0,0,0-.7,4.245,7.175,7.175,0,0,0,2.306,4.57,12.93,12.93,0,0,1,1.1,1.379C4.143,16.57,4.6,17.46,5.268,18.329A7.68,7.68,0,0,0,6.6,19.7,9.31,9.31,0,0,0,9.567,21.14c.892.286,1.782.521,2.661.8a12.553,12.553,0,0,1,3.582,1.633,3.865,3.865,0,0,1,1.533,2,3.069,3.069,0,0,1,.085,1.346" transform="translate(0 0)" fill="#292929" fill-rule="evenodd"/>
      <path id="Path_25" data-name="Path 25" d="M23.811,60.661A13.583,13.583,0,0,0,18.148,55.5,13.927,13.927,0,0,0,13.7,54.118c-.97-.119-1.236.092-.928,1.062A6.78,6.78,0,0,0,19.5,59.894c1.55.033,3.144-.21,4.312.767" transform="translate(-7.609 -32.525)" fill="#292929" fill-rule="evenodd"/>
    </g>
  </g>
</svg>
