<svg xmlns="http://www.w3.org/2000/svg" xmlns:xlink="http://www.w3.org/1999/xlink" width="122.505" height="77.814" viewBox="0 0 122.505 77.814">
  <defs>
    <clipPath id="clip-path">
      <rect id="Rectangle_31" data-name="Rectangle 31" width="122.505" height="77.814" fill="#ffe2b6"/>
    </clipPath>
  </defs>
  <g id="Group_34" data-name="Group 34" opacity="0.8" clip-path="url(#clip-path)">
    <path id="Path_18" data-name="Path 18" d="M46.757,72.213a1.607,1.607,0,0,0,.473,1.267c1.679,1.768,7.254,2.16,9,.245a2.737,2.737,0,0,0,.6-1.63,31.449,31.449,0,0,0,.2-5.722,24.154,24.154,0,0,0-1.553-7.5,22.932,22.932,0,0,0-5.228-7.7c-.68-.689-1.382-1.365-2.1-2.071A38.709,38.709,0,0,1,44.5,45.133a6.349,6.349,0,0,1-1.6-5.181,2.056,2.056,0,0,0-1.149,1.554,7.492,7.492,0,0,0,.876,5.53,21.587,21.587,0,0,0,2.421,3.492c2.221,2.731,4.12,4.728,4.939,8.183a45.247,45.247,0,0,0-7.634-5.15c-6.1-3.668-10.257-6.883-11.675-14.134a31.827,31.827,0,0,1,1.442-16.22,11.942,11.942,0,0,0-3.085,4.364,25.554,25.554,0,0,0-2.176,11.161,37.583,37.583,0,0,0,.941,7.476c.086.4.155.75.2,1.06.277,1.916-.51,2.6-2.4,1.981a10.533,10.533,0,0,1-2.637-1.357,14.859,14.859,0,0,1-4.972-5.718,14.07,14.07,0,0,1-1.125-3.222,13.512,13.512,0,0,1,1.488-9.094,45.315,45.315,0,0,1,5.526-8.1c1.916-2.35,3.917-4.61,5.771-7.046C33.036,10.259,36.638,4.434,35.734,0c-.909,3.675-3.485,7.051-6.011,9.824C26.144,13.757,22.106,17.146,18.6,21.2a55.409,55.409,0,0,0-4.992,6.7c-2.017,3.187-3.3,4.232-5.563,1.917A12.8,12.8,0,0,1,5.051,25.2a18.324,18.324,0,0,1-.379-8.775c.326-2.125.657-3.771.913-5.271.431-2.539.969-7.9-.445-10.191A32.4,32.4,0,0,1,3.755,8.894c-.538,1.8-1.182,3.548-1.826,5.457A28.991,28.991,0,0,0,.055,25.741c.4,5.216,2.739,8.5,6.187,12.262A34.689,34.689,0,0,1,9.2,41.7c1.916,2.754,3.13,5.143,4.935,7.473A20.605,20.605,0,0,0,17.7,52.847a24.978,24.978,0,0,0,7.971,3.871c2.393.767,4.78,1.4,7.14,2.136a33.678,33.678,0,0,1,9.609,4.381A10.369,10.369,0,0,1,46.529,68.6a8.235,8.235,0,0,1,.228,3.611" transform="translate(0)" fill="#ffe2b6" fill-rule="evenodd"/>
    <path id="Path_19" data-name="Path 19" d="M71.261,72.213a1.607,1.607,0,0,1-.473,1.267c-1.679,1.768-7.254,2.16-9,.245a2.737,2.737,0,0,1-.6-1.63,31.449,31.449,0,0,1-.2-5.722,24.154,24.154,0,0,1,1.553-7.5,22.932,22.932,0,0,1,5.228-7.7c.68-.689,1.382-1.365,2.1-2.071a38.708,38.708,0,0,0,3.652-3.968,6.363,6.363,0,0,0,1.6-5.181,2.056,2.056,0,0,1,1.149,1.554,7.492,7.492,0,0,1-.876,5.53,21.862,21.862,0,0,1-2.421,3.492c-2.221,2.731-4.12,4.728-4.939,8.183a45.247,45.247,0,0,1,7.634-5.15c6.1-3.668,10.254-6.883,11.676-14.134A31.793,31.793,0,0,0,85.9,23.207a11.93,11.93,0,0,1,3.085,4.364,25.572,25.572,0,0,1,2.178,11.161,37.586,37.586,0,0,1-.942,7.476c-.089.4-.156.75-.2,1.06-.277,1.916.511,2.6,2.4,1.981a10.515,10.515,0,0,0,2.633-1.357,14.885,14.885,0,0,0,4.975-5.718,14.164,14.164,0,0,0,1.122-3.222,13.493,13.493,0,0,0-1.486-9.094,45.327,45.327,0,0,0-5.528-8.1c-1.916-2.35-3.918-4.61-5.767-7.046C84.983,10.259,81.379,4.434,82.283,0c.911,3.675,3.484,7.051,6.01,9.824,3.581,3.933,7.618,7.321,11.125,11.376a55.19,55.19,0,0,1,4.993,6.7c2.016,3.187,3.3,4.232,5.562,1.917a12.809,12.809,0,0,0,2.995-4.616,18.35,18.35,0,0,0,.379-8.775c-.326-2.125-.658-3.771-.912-5.271-.433-2.539-.973-7.9.442-10.191a32.5,32.5,0,0,0,1.385,7.934c.539,1.8,1.184,3.548,1.827,5.457a28.91,28.91,0,0,1,1.872,11.39c-.4,5.216-2.735,8.5-6.184,12.262a35.213,35.213,0,0,0-2.956,3.7c-1.918,2.754-3.131,5.143-4.936,7.473a20.6,20.6,0,0,1-3.561,3.672,24.973,24.973,0,0,1-7.972,3.871c-2.392.767-4.78,1.4-7.141,2.136A33.685,33.685,0,0,0,75.6,63.235,10.391,10.391,0,0,0,71.489,68.6,8.235,8.235,0,0,0,71.261,72.213Z" transform="translate(4.242)" fill="#ffe2b6" fill-rule="evenodd"/>
    <path id="Path_20" data-name="Path 20" d="M73.664,71.724a36.43,36.43,0,0,1,15.191-13.86,37.4,37.4,0,0,1,11.925-3.7c2.6-.319,3.319.248,2.491,2.848-2.657,8.349-9.783,12.47-18.039,12.649-4.154.09-8.433-.563-11.568,2.058" transform="translate(5.128 3.765)" fill="#ffe2b6" fill-rule="evenodd"/>
    <path id="Path_21" data-name="Path 21" d="M42.587,71.724a36.442,36.442,0,0,0-15.193-13.86,37.365,37.365,0,0,0-11.924-3.7c-2.6-.319-3.317.248-2.49,2.848,2.657,8.349,9.781,12.47,18.037,12.649,4.158.09,8.436-.563,11.57,2.058" transform="translate(0.881 3.765)" fill="#ffe2b6" fill-rule="evenodd"/>
  </g>
</svg>
