<svg id="air-conditioning" xmlns="http://www.w3.org/2000/svg" xmlns:xlink="http://www.w3.org/1999/xlink" width="66.1" height="50.9" viewBox="0 0 66.1 50.9">
  <defs>
    <linearGradient id="linear-gradient" x1="-0.446" y1="1.278" x2="1.115" y2="0.005" gradientUnits="objectBoundingBox">
      <stop offset="0" stop-color="#7a582a"/>
      <stop offset="0.2" stop-color="#a07c47"/>
      <stop offset="0.5" stop-color="#f7ebcf"/>
      <stop offset="0.8" stop-color="#d0ad80"/>
      <stop offset="1" stop-color="#b27e52"/>
      <stop offset="1" stop-color="#ae774c"/>
    </linearGradient>
    <linearGradient id="linear-gradient-2" x1="-0.246" y1="0.954" x2="0.896" y2="-0.421" xlink:href="#linear-gradient"/>
    <linearGradient id="linear-gradient-3" x1="0.138" y1="1.248" x2="1.088" y2="0.238" xlink:href="#linear-gradient"/>
    <linearGradient id="linear-gradient-4" x1="-0.662" y1="1.456" x2="1.25" y2="-0.116" xlink:href="#linear-gradient"/>
    <linearGradient id="linear-gradient-5" x1="-1.543" y1="11.136" x2="2.936" y2="-12.182" xlink:href="#linear-gradient"/>
    <linearGradient id="linear-gradient-6" x1="-0.95" y1="8.045" x2="3.521" y2="-15.273" xlink:href="#linear-gradient"/>
    <linearGradient id="linear-gradient-7" x1="-0.557" y1="6.045" x2="3.921" y2="-17.318" xlink:href="#linear-gradient"/>
    <linearGradient id="linear-gradient-8" x1="-0.757" y1="7.045" x2="3.721" y2="-16.273" xlink:href="#linear-gradient"/>
    <linearGradient id="linear-gradient-9" x1="-0.364" y1="5" x2="4.114" y2="-18.318" xlink:href="#linear-gradient"/>
    <linearGradient id="linear-gradient-10" x1="-7" y1="10.273" x2="10.914" y2="-13.045" xlink:href="#linear-gradient"/>
    <linearGradient id="linear-gradient-11" x1="-1.921" y1="8.545" x2="5.124" y2="-14.773" xlink:href="#linear-gradient"/>
    <linearGradient id="linear-gradient-12" x1="-1.343" y1="10.136" x2="3.129" y2="-13.182" xlink:href="#linear-gradient"/>
  </defs>
  <g id="Group_80" data-name="Group 80">
    <g id="Group_79" data-name="Group 79">
      <path id="Path_50" data-name="Path 50" d="M41.8,5.3A20.208,20.208,0,0,0,21.6,25.5a19.986,19.986,0,0,0,5.1,13.4,1.131,1.131,0,0,0,1.6-1.6h0a17.917,17.917,0,1,1,25.3,1.4,17.779,17.779,0,0,1-22.3,1.2,1.14,1.14,0,1,0-1.4,1.8h0A20.146,20.146,0,1,0,53.3,8.9,20.414,20.414,0,0,0,41.6,5.1Z" fill="url(#linear-gradient)"/>
    </g>
  </g>
  <g id="Group_82" data-name="Group 82">
    <g id="Group_81" data-name="Group 81">
      <path id="Path_51" data-name="Path 51" d="M53.8,0H4.6A4.653,4.653,0,0,0,0,4.6V36.2a1.11,1.11,0,0,0,1.1,1.1,1.11,1.11,0,0,0,1.1-1.1V4.6A2.263,2.263,0,0,1,4.5,2.3H53.7a1.11,1.11,0,0,0,1.1-1.1A1.009,1.009,0,0,0,53.8,0Z" fill="url(#linear-gradient-2)"/>
    </g>
  </g>
  <g id="Group_84" data-name="Group 84">
    <g id="Group_83" data-name="Group 83">
      <path id="Path_52" data-name="Path 52" d="M61.4,0H57.7a1.11,1.11,0,0,0-1.1,1.1,1.11,1.11,0,0,0,1.1,1.1h3.7a2.263,2.263,0,0,1,2.3,2.3V46.3a2.263,2.263,0,0,1-2.3,2.3H4.6a2.263,2.263,0,0,1-2.3-2.3V39.9a1.11,1.11,0,0,0-1.1-1.1A1.11,1.11,0,0,0,.1,39.9v6.4a4.653,4.653,0,0,0,4.6,4.6H61.5a4.653,4.653,0,0,0,4.6-4.6V4.6A4.81,4.81,0,0,0,61.4,0Z" fill="url(#linear-gradient-3)"/>
    </g>
  </g>
  <g id="Group_86" data-name="Group 86">
    <g id="Group_85" data-name="Group 85">
      <path id="Path_53" data-name="Path 53" d="M54.8,19.6a7.113,7.113,0,0,0-6.9-.6l-3.5,1.5a6.943,6.943,0,0,0-1.3-.5V10.2A1.11,1.11,0,0,0,42,9.1a7.341,7.341,0,0,0-7.3,7.3,7.173,7.173,0,0,0,.6,2.9l1.5,3.5a6.943,6.943,0,0,0-.5,1.3H26.5a1.11,1.11,0,0,0-1.1,1.1,7.341,7.341,0,0,0,7.3,7.3,8.025,8.025,0,0,0,3-.6l3.5-1.5a6.943,6.943,0,0,0,1.3.5v9.8a1.11,1.11,0,0,0,1.1,1.1,7.341,7.341,0,0,0,7.3-7.3,7.173,7.173,0,0,0-.6-2.9l-1.5-3.5a6.943,6.943,0,0,0,.5-1.3h9.8a1.11,1.11,0,0,0,1.1-1.1,7.084,7.084,0,0,0-3.3-6.1ZM34.7,29.9a4.982,4.982,0,0,1-6.6-2.6l-.3-.9h8.5a5.6,5.6,0,0,0,1,2.4l-2.5,1.1Zm3.1-16.3a5.006,5.006,0,0,1,3.1-2.2v8.5a5.6,5.6,0,0,0-2.4,1l-1.1-2.5a5.1,5.1,0,0,1,.4-4.8h0Zm3.8,15.2h0a3,3,0,0,1-1.8-.6h0a3.462,3.462,0,0,1-1.4-2.7h0v-.2a3,3,0,0,1,.6-1.8,3.189,3.189,0,0,1,2.7-1.4h.2a3,3,0,0,1,1.8.6,3.189,3.189,0,0,1,1.4,2.7h0v.2a3,3,0,0,1-.6,1.8,3.189,3.189,0,0,1-2.7,1.4h-.2Zm4.2,8.5a5.006,5.006,0,0,1-3.1,2.2V31a5.6,5.6,0,0,0,2.4-1l1.1,2.5a5.1,5.1,0,0,1-.4,4.8Zm1.5-12.7a5.6,5.6,0,0,0-1-2.4l2.5-1.1a4.982,4.982,0,0,1,6.6,2.6l.3.9H47.3Z" fill="url(#linear-gradient-4)"/>
    </g>
  </g>
  <g id="Group_88" data-name="Group 88">
    <g id="Group_87" data-name="Group 87">
      <path id="Path_54" data-name="Path 54" d="M18,7.5H6.2a1.1,1.1,0,0,0,0,2.2H18a1.1,1.1,0,1,0,0-2.2h0Z" fill="url(#linear-gradient-5)"/>
    </g>
  </g>
  <g id="Group_90" data-name="Group 90">
    <g id="Group_89" data-name="Group 89">
      <path id="Path_55" data-name="Path 55" d="M18,24.4H6.2a1.1,1.1,0,0,0,0,2.2H18a1.1,1.1,0,0,0,0-2.2Z" fill="url(#linear-gradient-6)"/>
    </g>
  </g>
  <g id="Group_92" data-name="Group 92">
    <g id="Group_91" data-name="Group 91">
      <path id="Path_56" data-name="Path 56" d="M18,35.6H6.2a1.1,1.1,0,1,0,0,2.2H18a1.1,1.1,0,1,0,0-2.2Z" fill="url(#linear-gradient-7)"/>
    </g>
  </g>
  <g id="Group_94" data-name="Group 94">
    <g id="Group_93" data-name="Group 93">
      <path id="Path_57" data-name="Path 57" d="M18,30H6.2a1.1,1.1,0,0,0,0,2.2H18A1.1,1.1,0,0,0,18,30Z" fill="url(#linear-gradient-8)"/>
    </g>
  </g>
  <g id="Group_96" data-name="Group 96">
    <g id="Group_95" data-name="Group 95">
      <path id="Path_58" data-name="Path 58" d="M18,41.2H6.2a1.1,1.1,0,1,0,0,2.2H18a1.1,1.1,0,1,0,0-2.2Z" fill="url(#linear-gradient-9)"/>
    </g>
  </g>
  <g id="Group_98" data-name="Group 98">
    <g id="Group_97" data-name="Group 97">
      <path id="Path_59" data-name="Path 59" d="M18,18.7H16.7a1.1,1.1,0,1,0,0,2.2H18a1.1,1.1,0,0,0,0-2.2Z" fill="url(#linear-gradient-10)"/>
    </g>
  </g>
  <g id="Group_100" data-name="Group 100">
    <g id="Group_99" data-name="Group 99">
      <path id="Path_60" data-name="Path 60" d="M12.9,18.7H6.2a1.1,1.1,0,0,0,0,2.2h6.7a1.1,1.1,0,1,0,0-2.2Z" fill="url(#linear-gradient-11)"/>
    </g>
  </g>
  <g id="Group_102" data-name="Group 102">
    <g id="Group_101" data-name="Group 101">
      <path id="Path_61" data-name="Path 61" d="M18,13.1H6.2a1.1,1.1,0,0,0,0,2.2H18a1.1,1.1,0,0,0,0-2.2Z" fill="url(#linear-gradient-12)"/>
    </g>
  </g>
</svg>
