<svg xmlns="http://www.w3.org/2000/svg" xmlns:xlink="http://www.w3.org/1999/xlink" width="60.1" height="49.886" viewBox="0 0 60.1 49.886">
  <defs>
    <linearGradient id="linear-gradient" x1="-0.072" y1="0.928" x2="0.77" y2="0.056" gradientUnits="objectBoundingBox">
      <stop offset="0" stop-color="#7a582a"/>
      <stop offset="0.2" stop-color="#a07c47"/>
      <stop offset="0.5" stop-color="#f7ebcf"/>
      <stop offset="0.8" stop-color="#d0ad80"/>
      <stop offset="1" stop-color="#b27e52"/>
      <stop offset="1" stop-color="#ae774c"/>
    </linearGradient>
    <linearGradient id="linear-gradient-2" x1="-6.273" y1="9.049" x2="7.247" y2="-8.01" xlink:href="#linear-gradient"/>
  </defs>
  <g id="casino-cctv" transform="translate(0 -0.014)">
    <path id="Path_62" data-name="Path 62" d="M60.1,19.8c0-.5-.3-1.6-2.1-2.2L10.5.3a4.711,4.711,0,0,0-6,2.8L3.2,6.6h0l-2.9,8a4.711,4.711,0,0,0,2.8,6l13.8,5A5.672,5.672,0,0,0,18,30l-2.9,8.1a.875.875,0,0,1-.9.6H5.6V35.9a2.8,2.8,0,0,0-2.8-2.8H.9A.9.9,0,0,0,0,34V49a.9.9,0,0,0,.9.9H2.8a2.8,2.8,0,0,0,2.8-2.8V44.3h8.6A6.594,6.594,0,0,0,20.4,40l2.9-7.9a5.207,5.207,0,0,0,4-2.7l16.2,5.9a4.56,4.56,0,0,0,5.6-2L51,34a1.778,1.778,0,0,0,2.4-1.1h0L56,25.8a1.95,1.95,0,0,0-.8-2.3l3-1.4c1.7-.8,1.9-1.8,1.9-2.4ZM3.8,47.2a.9.9,0,0,1-.9.9H2V34.9h.9a.9.9,0,0,1,.9.9V47.1Zm14.9-7.8a4.627,4.627,0,0,1-4.4,3.1H5.6V40.6h8.6a2.883,2.883,0,0,0,2.7-1.9l2.7-7.4a5.094,5.094,0,0,0,1.7.7l-2.7,7.4Zm4-9.1h0A3.864,3.864,0,0,1,20,29.2l-.1-.1a3.743,3.743,0,0,1-1-2.8l6.8,2.5a3.8,3.8,0,0,1-2.9,1.5Zm31.5-5.1-2.6,7.1-1.8-.6L52.2,25l.5-.2,1.4.5Zm3.2-4.7-5,2.3h0l-1.2.6h0l-1.4.7a9.446,9.446,0,0,1-6.2.3L16.4,14.5a.864.864,0,0,0-1.2.6.839.839,0,0,0,.6,1.2L43,26.2a9.462,9.462,0,0,0,3.3.5,11.476,11.476,0,0,0,3.7-.6L47.9,32a2.82,2.82,0,0,1-3.6,1.7L3.8,18.8a2.782,2.782,0,0,1-1.7-3.6l1.6-4.4A4.444,4.444,0,0,0,6,12.6l.9.3a.864.864,0,0,0,1.2-.6.864.864,0,0,0-.6-1.2l-.9-.3A2.782,2.782,0,0,1,4.9,7.2l.3-.9h0l1-2.6A2.82,2.82,0,0,1,9.8,2L57.3,19.3c.3,0,.6.3.9.5a1.555,1.555,0,0,1-.8.6Z" fill="url(#linear-gradient)"/>
    <path id="Path_63" data-name="Path 63" d="M12.9,13.1l-1.8-.6a.864.864,0,0,0-1.2.6.864.864,0,0,0,.6,1.2h0l1.8.6a.864.864,0,0,0,1.2-.6.864.864,0,0,0-.6-1.2Z" fill="url(#linear-gradient-2)"/>
  </g>
</svg>
