<svg xmlns="http://www.w3.org/2000/svg" xmlns:xlink="http://www.w3.org/1999/xlink" width="55" height="53.295" viewBox="0 0 55 53.295">
  <defs>
    <linearGradient id="linear-gradient" x1="1.105" y1="-0.066" x2="-0.159" y2="1.159" gradientUnits="objectBoundingBox">
      <stop offset="0" stop-color="#ae774c"/>
      <stop offset="0.205" stop-color="#d0ad80"/>
      <stop offset="0.519" stop-color="#f7ebcf"/>
      <stop offset="0.787" stop-color="#a07c47"/>
      <stop offset="1" stop-color="#7a582a"/>
    </linearGradient>
  </defs>
  <g id="blueprint" transform="translate(0 -0.992)">
    <path id="Path_80" data-name="Path 80" d="M5.156,54.273a.859.859,0,0,0,.859-.859V45.68H49.844A5.161,5.161,0,0,0,55,40.523V6.148A5.161,5.161,0,0,0,49.844.992a.859.859,0,0,0-.859.859V9.586H5.156A5.161,5.161,0,0,0,0,14.742V49.117A5.161,5.161,0,0,0,5.156,54.273ZM1.719,49.117A3.434,3.434,0,0,1,4.3,45.8v6.632a3.435,3.435,0,0,1-2.578-3.316ZM53.281,6.148V36.69A5.135,5.135,0,0,0,50.7,35.444V2.833a3.434,3.434,0,0,1,2.578,3.315ZM5.156,11.3H48.984V36.226a.859.859,0,0,0,.859.859,3.438,3.438,0,0,1,0,6.875H5.156a5.13,5.13,0,0,0-3.437,1.323V14.742A3.441,3.441,0,0,1,5.156,11.3Z" fill="url(#linear-gradient)"/>
    <path id="Path_81" data-name="Path 81" d="M51.516,59.429a.829.829,0,0,0-.046-.17c-.009-.018-.007-.039-.016-.057a.886.886,0,0,0-.06-.077.713.713,0,0,0-.242-.243.718.718,0,0,0-.082-.064L47.633,57.1c-.009,0-.018,0-.025-.007s-.02-.014-.031-.018a.853.853,0,0,0-.155-.033.887.887,0,0,0-.147-.028c-.009,0-.018-.005-.027-.005H12.873a.859.859,0,0,0-.859.859V61.3a.859.859,0,0,0,.859.859h34.38a.858.858,0,0,0,.323-.065c.012-.005.021-.014.033-.018s.016,0,.023-.006l3.438-1.719a.137.137,0,0,0,.021-.017.84.84,0,0,0,.235-.184c.015-.017.023-.035.037-.053a.861.861,0,0,0,.09-.131c.009-.018.008-.039.016-.057a.887.887,0,0,0,.046-.17.622.622,0,0,0,0-.315Zm-6.593-.45a.858.858,0,0,0,0,1.215l.252.252H22.326V58.727H45.175Zm2.5,1.28-.673-.673.673-.673,1.346.673ZM15.451,58.727v1.719H13.734V58.727Zm3.438.859a.859.859,0,0,0-.859.859H17.17V58.727h.859a.859.859,0,0,0,1.719,0h.859v1.719h-.859A.859.859,0,0,0,18.889,59.586Z" transform="translate(-1.689 -7.877)" fill="url(#linear-gradient)"/>
    <path id="Path_82" data-name="Path 82" d="M10.032,25.585V42.6s0,.006,0,.009a.859.859,0,0,0,.859.859h2.58a.859.859,0,0,0,0-1.719H11.751V40.032h1.719a.859.859,0,0,0,.859-.859c0-.021-.011-.041-.013-.063s.013-.04.013-.062V28.862A.859.859,0,0,0,13.469,28H11.751V26.287h9.465a.859.859,0,0,0,.859-.859c0-.015-.008-.027-.009-.042l0-7.691H40.1V28L38.42,28c-.015,0-.026-.009-.04-.009s-.027.008-.041.009l-6.732.009A.692.692,0,0,0,31.52,28h0a.852.852,0,0,0-.089.018l-4.22.006H21.2a.859.859,0,0,0-.859.859V39.173a.859.859,0,0,0,.859.859h5.156v1.72H24.639a.859.859,0,0,0,0,1.719h2.507c.022,0,.043.014.066.014s.044-.012.066-.014h2.514a.859.859,0,1,0,0-1.719h-1.72V39.19c0-.006,0-.011,0-.017s0-.011,0-.017V29.737l2.587,0-.012,8.579h0a.807.807,0,0,0,.024.122.9.9,0,0,0,.043.212.869.869,0,0,0,.165.246c.008.009.011.019.018.027a.859.859,0,0,0,.51.233.761.761,0,0,0,.1.02h12.03V41.75h-1.72a.859.859,0,0,0,0,1.719h2.58a.859.859,0,0,0,.859-.859V16.836a.859.859,0,0,0-.859-.859H41.007c-.018,0-.033-.01-.051-.01s-.033.009-.051.01H10.891a.859.859,0,0,0-.859.859V25.27a.806.806,0,0,0-.032.158.785.785,0,0,0,.032.157Zm2.578,4.136v8.592h-.859V29.721Zm0-5.153h-.859V17.7h.859ZM14.329,17.7h3.437v6.873H14.329Zm6.019,6.873h-.863V17.7h.859ZM40.1,37.454h-.858V29.721H40.1Zm1.719-7.736,1.72,0V32.3h-1.72Zm1.72-5.154H41.817V17.7h1.718Zm-1.718,1.719h1.718V28l-1.718,0ZM22.056,34.875H23.78v3.438H22.056Zm1.724-1.719H22.056V29.737H23.78ZM25.5,38.312V29.737h.854v8.575ZM37.52,29.724v7.73H32.366l.011-7.722Zm4.3,7.73V34.016h1.72v3.438Z" transform="translate(-1.406 -2.106)" fill="url(#linear-gradient)"/>
    <path id="Path_83" data-name="Path 83" d="M42.757,45.97H35.89a.859.859,0,0,0,0,1.719h6.866a.859.859,0,0,0,0-1.719Z" transform="translate(-4.926 -6.325)" fill="url(#linear-gradient)"/>
    <path id="Path_84" data-name="Path 84" d="M22.9,45.97H16.9a.859.859,0,0,0,0,1.719H22.9a.859.859,0,1,0,0-1.719Z" transform="translate(-2.255 -6.325)" fill="url(#linear-gradient)"/>
    <path id="Path_85" data-name="Path 85" d="M35.875,26.867a.859.859,0,0,0,.859-.859V20.852a.859.859,0,0,0-.859-.859H29.859a.859.859,0,0,0-.859.859v5.155a.859.859,0,0,0,.859.859Zm-5.156-5.155h4.3v3.437h-4.3Z" transform="translate(-4.078 -2.672)" fill="url(#linear-gradient)"/>
  </g>
</svg>
