<svg xmlns="http://www.w3.org/2000/svg" xmlns:xlink="http://www.w3.org/1999/xlink" width="51.124" height="50.404" viewBox="0 0 51.124 50.404">
  <defs>
    <linearGradient id="linear-gradient" x1="0.966" y1="0.07" x2="0" y2="1" gradientUnits="objectBoundingBox">
      <stop offset="0" stop-color="#ae774c"/>
      <stop offset="0.213" stop-color="#d0ad80"/>
      <stop offset="0.447" stop-color="#f7ebcf"/>
      <stop offset="0.745" stop-color="#a07c47"/>
      <stop offset="1" stop-color="#7a582a"/>
    </linearGradient>
  </defs>
  <g id="Group_138" data-name="Group 138" transform="translate(-1239 -1006)">
    <path id="_x32_5" d="M75.4,30.329H59.563v-1.44a.72.72,0,0,0-.72-.72h-3.6a.72.72,0,0,0-.72.72v1.44H45.162v-1.44a.72.72,0,0,0-.72-.72h-3.6a.72.72,0,0,0-.72.72v1.44H30.76a.72.72,0,0,0-.72.72v3.7a6.1,6.1,0,0,0,0,9.877V47.61H27.88a.72.72,0,0,0-.509.211l-2.16,2.159a.73.73,0,0,0-.212.51V77.853a.72.72,0,0,0,.72.72H52.363a1.145,1.145,0,0,0,.4-.121l1.979-1.319H75.4a.72.72,0,0,0,.72-.72V31.049A.72.72,0,0,0,75.4,30.329Zm-3.6,1.44V75.693H55.242v-1.08H66.763a2.52,2.52,0,1,0,0-5.04h-7.2v-2.16h3.6a6.12,6.12,0,0,0,0-12.241h-3.6v-2.16h3.6a6.12,6.12,0,0,0,0-12.241h-3.6V38.61h7.2a2.52,2.52,0,1,0,0-5.04h-7.2v-1.8Zm-15.841,23.4v-2.16h2.16v2.16Zm-1.44,0H45.162v-2.16h9.361Zm-10.8,0h-.555a10.124,10.124,0,0,0-1.158-2.16h1.713Zm19.441,5.04a1.08,1.08,0,1,1,0,2.16h-3.6v-2.16Zm-5.04,2.16h-2.16v-2.16h2.16Zm-3.6,0h-8.4a8.467,8.467,0,0,1-1.516-2.16h9.918v2.16Zm8.641,1.44a2.52,2.52,0,1,0,0-5.04H44.039a8.689,8.689,0,0,1-.274-1.276c-.039-.3-.094-.592-.16-.885H63.163a4.68,4.68,0,0,1,0,9.361H51.912a.69.69,0,0,0-.172.035,9.969,9.969,0,0,0-2.4-1.527l-.6-.27c-.261-.118-.505-.257-.75-.4H63.163Zm3.6,7.2a1.08,1.08,0,1,1,0,2.16H66.4a1.08,1.08,0,1,1,0-2.16Zm-2.627,2.16h-8.91a9.974,9.974,0,0,0-.335-2.16h9.245a2.434,2.434,0,0,0,0,2.16Zm-8.173-3.6v-2.16h2.16v2.16Zm-1.44-2.16v2.16h-.139a10.073,10.073,0,0,0-1.3-2.16Zm1.44-26.642V38.61h2.16v2.16h-2.16Zm-10.8,0V38.61h9.361v2.16H45.162Zm-3.6,0V38.61h2.16v2.16h-2.16Zm-7.921,0a1.08,1.08,0,1,1,0-2.16h6.48v2.16Zm31.683-4.68a1.081,1.081,0,0,1,1.08-1.08h.36a1.08,1.08,0,0,1,0,2.16H66.4A1.081,1.081,0,0,1,65.323,36.09Zm-7.2-6.48v3.96h-2.16v-3.96Zm-3.6,2.16v1.8H45.162v-1.8Zm-10.8-2.16v3.96h-2.16v-3.96ZM31.48,31.769h8.641v1.8h-6.48a6.075,6.075,0,0,0-2.16.4ZM28.96,39.69a4.686,4.686,0,0,1,4.68-4.68h30.5a2.434,2.434,0,0,0,0,2.16h-30.5a2.52,2.52,0,0,0,0,5.04H63.163a4.68,4.68,0,1,1,0,9.361H40.841c-.018,0-.034.009-.051.01l-.315-.315a16.99,16.99,0,0,0-2.181-1.856H63.163a2.52,2.52,0,1,0,0-5.04H33.641a4.686,4.686,0,0,1-4.68-4.68Zm14.761,6.12v2.16h-2.16V45.81Zm19.441,0a1.08,1.08,0,1,1,0,2.16h-3.6V45.81Zm-5.04,2.16h-2.16V45.81h2.16Zm-3.6,0H45.162V45.81h9.361ZM31.48,45.409a6.075,6.075,0,0,0,2.16.4h6.48v2.16H35.8a.7.7,0,0,0-.177.036,6.9,6.9,0,0,0-2.237-.4H31.48Zm-3.3,3.641h5.209c2.344,0,4.594,1.759,6.069,3.234l.438.438a8.627,8.627,0,0,1,2.442,4.959,9.958,9.958,0,0,0,5.816,7.84l.6.27A8.6,8.6,0,0,1,53.8,73.615v2.413l-.72.48V75.055a10.039,10.039,0,0,0-5.9-9.136l-.6-.27a8.529,8.529,0,0,1-4.98-6.713,10.076,10.076,0,0,0-2.852-5.791l-.438-.438a9.958,9.958,0,0,0-7.088-2.936H27.458ZM51.642,77.133H26.44V51.211h4.787A8.528,8.528,0,0,1,37.3,53.725l.438.438a8.627,8.627,0,0,1,2.442,4.959,9.958,9.958,0,0,0,5.816,7.84l.6.27a8.6,8.6,0,0,1,5.052,7.824v2.078Zm23.042-1.44h-1.44V31.769h1.44Z" transform="translate(1214 977.831)" fill="url(#linear-gradient)"/>
  </g>
</svg>
