<svg xmlns="http://www.w3.org/2000/svg" xmlns:xlink="http://www.w3.org/1999/xlink" width="53.723" height="53.329" viewBox="0 0 53.723 53.329">
  <defs>
    <linearGradient id="linear-gradient" x1="-0.139" y1="1.129" x2="1.109" y2="-0.092" gradientUnits="objectBoundingBox">
      <stop offset="0" stop-color="#8d6a39"/>
      <stop offset="0.205" stop-color="#a07c47"/>
      <stop offset="0.494" stop-color="#f7ebcf"/>
      <stop offset="0.77" stop-color="#d0ad80"/>
      <stop offset="1" stop-color="#ae774c"/>
    </linearGradient>
  </defs>
  <g id="search" transform="translate(0 -1.872)">
    <path id="Path_86" data-name="Path 86" d="M64.472,86.5a20.158,20.158,0,0,0,0-40.317h-.2a.788.788,0,0,0,.007,1.576h.195A18.485,18.485,0,0,1,75.6,51.472L67.284,62.842H58.309a.788.788,0,0,0,0,1.576h9.376a.788.788,0,0,0,.636-.323l8.5-11.622a18.745,18.745,0,0,1,1.949,2.018l-6.345,8.673a.788.788,0,0,0,.636,1.254h9.892a18.717,18.717,0,0,1,.1,1.926c0,.281-.007.561-.02.839H76.944a.788.788,0,0,0,0,1.576H82.9A18.538,18.538,0,0,1,77.73,79.349h-9.7a.788.788,0,0,0,0,1.576h7.95a18.544,18.544,0,0,1-23.008,0h8.625a.788.788,0,0,0,0-1.576H51.215Q50.674,78.8,50.18,78.2l6.911-9.446H73.585a.788.788,0,1,0,0-1.576H56.69a.788.788,0,0,0-.636.323l-6.869,9.389a18.6,18.6,0,0,1-1.512-2.615l4.275-5.843a.788.788,0,0,0-.636-1.254h-5.4c-.012-.278-.02-.558-.02-.839a18.8,18.8,0,0,1,.1-1.926h2.928a.788.788,0,1,0,0-1.576h-2.7a18.467,18.467,0,0,1,.856-3.045.788.788,0,1,0-1.475-.556A20.168,20.168,0,0,0,64.472,86.5Zm10.144-23.66,5.15-7.039a18.483,18.483,0,0,1,2.956,7.039ZM49.758,68.759l-2.792,3.816a18.428,18.428,0,0,1-.919-3.816h3.711Z" transform="translate(-39.657 -39.656)" fill="url(#linear-gradient)"/>
    <path id="Path_87" data-name="Path 87" d="M52.77,48.985l-7.805-7.805A24.818,24.818,0,0,0,24.815,1.872a25.145,25.145,0,0,0-3.058.188.788.788,0,1,0,.192,1.565,23.575,23.575,0,0,1,2.866-.176A23.239,23.239,0,0,1,41.248,43.12,23.242,23.242,0,0,1,4.364,15.642a.788.788,0,0,0-1.386-.75A24.82,24.82,0,0,0,39.759,46.5l2.359,2.359a.788.788,0,0,0,1.115-1.115l-2.24-2.24q.7-.607,1.369-1.272.864-.864,1.631-1.8L51.655,50.1a1.676,1.676,0,0,1,0,2.371l-.663.663a1.676,1.676,0,0,1-2.371,0l-3.012-3.012a.788.788,0,0,0-1.115,1.115l3.012,3.012a3.253,3.253,0,0,0,4.6,0l.663-.663a3.252,3.252,0,0,0,0-4.6Z" fill="url(#linear-gradient)"/>
    <path id="Path_88" data-name="Path 88" d="M88.866,37.625a5.16,5.16,0,1,0,5.16,5.16A5.156,5.156,0,0,0,88.866,37.625Zm2.709,7.5a3.583,3.583,0,0,1-5.419-4.689h0a3.583,3.583,0,1,1,5.418,4.69Z" transform="translate(-74.909 -31.996)" fill="url(#linear-gradient)"/>
    <path id="Path_89" data-name="Path 89" d="M53.965,21.648a6.517,6.517,0,0,1,1.1,2.464l.273,1.262a2.142,2.142,0,0,0,4.188,0l.273-1.262a6.517,6.517,0,0,1,1.1-2.464l1.145-1.579a.788.788,0,1,0-1.276-.926l-1.145,1.579a8.084,8.084,0,0,0-1.366,3.057l-.273,1.262a.566.566,0,0,1-1.106,0l-.273-1.262a8.084,8.084,0,0,0-1.366-3.057l-3.65-5.033a7.274,7.274,0,1,1,11.678.007l-.513.707a.788.788,0,0,0,1.276.925l.507-.7a8.851,8.851,0,1,0-14.219-.007Z" transform="translate(-43.477 -0.566)" fill="url(#linear-gradient)"/>
    <path id="Path_90" data-name="Path 90" d="M211.037,296.9a.788.788,0,0,0,.788-.788v-3.1a3.324,3.324,0,1,0-1.576,0v3.1A.788.788,0,0,0,211.037,296.9Zm-1.748-7.121a1.748,1.748,0,1,1,1.748,1.748A1.75,1.75,0,0,1,209.289,289.778Z" transform="translate(-185.884 -254.675)" fill="url(#linear-gradient)"/>
  </g>
</svg>
